<mxfile host="app.diagrams.net" agent="Mozilla/5.0 (Windows NT 10.0; Win64; x64) AppleWebKit/537.36 (KHTML, like Gecko) Chrome/130.0.0.0 Safari/537.36 Edg/130.0.0.0" version="24.8.3">
  <diagram name="Page-1" id="23zdIuCeMKt3JsMeoWD2">
    <mxGraphModel dx="753" dy="872" grid="1" gridSize="10" guides="1" tooltips="1" connect="1" arrows="1" fold="1" page="1" pageScale="1" pageWidth="850" pageHeight="1100" math="0" shadow="0">
      <root>
        <mxCell id="0" />
        <mxCell id="1" parent="0" />
        <mxCell id="ulyuIbHdvFyfTZUkgaUN-71" value="" style="rounded=0;whiteSpace=wrap;html=1;labelBackgroundColor=none;fillColor=none;" vertex="1" parent="1">
          <mxGeometry x="860" y="63" width="1370" height="680" as="geometry" />
        </mxCell>
        <mxCell id="ulyuIbHdvFyfTZUkgaUN-39" value="&lt;div&gt;&lt;font size=&quot;1&quot; style=&quot;&quot;&gt;&lt;b style=&quot;font-size: 18px;&quot;&gt;&amp;nbsp;S3&lt;/b&gt;&lt;/font&gt;&lt;/div&gt;" style="points=[[0,0],[0.25,0],[0.5,0],[0.75,0],[1,0],[1,0.25],[1,0.5],[1,0.75],[1,1],[0.75,1],[0.5,1],[0.25,1],[0,1],[0,0.75],[0,0.5],[0,0.25]];outlineConnect=0;gradientColor=none;html=1;whiteSpace=wrap;fontSize=12;fontStyle=0;container=1;pointerEvents=0;collapsible=0;recursiveResize=0;shape=mxgraph.aws4.group;grIcon=mxgraph.aws4.group_aws_cloud;strokeColor=#7aa116;fillColor=none;verticalAlign=top;align=left;spacingLeft=30;fontColor=#232F3E;dashed=0;strokeWidth=3;" vertex="1" parent="1">
          <mxGeometry x="1410" y="168" width="185" height="552" as="geometry" />
        </mxCell>
        <mxCell id="ulyuIbHdvFyfTZUkgaUN-36" value="Object Coordinates" style="dashed=0;outlineConnect=0;html=1;align=center;labelPosition=center;verticalLabelPosition=bottom;verticalAlign=top;shape=mxgraph.weblogos.json;fontSize=15;" vertex="1" parent="ulyuIbHdvFyfTZUkgaUN-39">
          <mxGeometry x="47" y="163.00000000000003" width="70" height="75.8" as="geometry" />
        </mxCell>
        <mxCell id="ulyuIbHdvFyfTZUkgaUN-23" value="Grouping Data" style="shape=table;startSize=30;container=1;collapsible=0;childLayout=tableLayout;fixedRows=1;rowLines=0;fontStyle=0;strokeColor=default;fontSize=16;" vertex="1" parent="ulyuIbHdvFyfTZUkgaUN-39">
          <mxGeometry x="30" y="411" width="120" height="120" as="geometry" />
        </mxCell>
        <mxCell id="ulyuIbHdvFyfTZUkgaUN-24" value="" style="shape=tableRow;horizontal=0;startSize=0;swimlaneHead=0;swimlaneBody=0;top=0;left=0;bottom=0;right=0;collapsible=0;dropTarget=0;fillColor=none;points=[[0,0.5],[1,0.5]];portConstraint=eastwest;strokeColor=inherit;fontSize=16;" vertex="1" parent="ulyuIbHdvFyfTZUkgaUN-23">
          <mxGeometry y="30" width="120" height="30" as="geometry" />
        </mxCell>
        <mxCell id="ulyuIbHdvFyfTZUkgaUN-25" value="1" style="shape=partialRectangle;html=1;whiteSpace=wrap;connectable=0;fillColor=none;top=0;left=0;bottom=0;right=0;overflow=hidden;pointerEvents=1;strokeColor=inherit;fontSize=16;" vertex="1" parent="ulyuIbHdvFyfTZUkgaUN-24">
          <mxGeometry width="27" height="30" as="geometry">
            <mxRectangle width="27" height="30" as="alternateBounds" />
          </mxGeometry>
        </mxCell>
        <mxCell id="ulyuIbHdvFyfTZUkgaUN-26" value="X1, Y1" style="shape=partialRectangle;html=1;whiteSpace=wrap;connectable=0;fillColor=none;top=0;left=0;bottom=0;right=0;align=left;spacingLeft=6;overflow=hidden;strokeColor=inherit;fontSize=16;" vertex="1" parent="ulyuIbHdvFyfTZUkgaUN-24">
          <mxGeometry x="27" width="93" height="30" as="geometry">
            <mxRectangle width="93" height="30" as="alternateBounds" />
          </mxGeometry>
        </mxCell>
        <mxCell id="ulyuIbHdvFyfTZUkgaUN-27" value="" style="shape=tableRow;horizontal=0;startSize=0;swimlaneHead=0;swimlaneBody=0;top=0;left=0;bottom=0;right=0;collapsible=0;dropTarget=0;fillColor=none;points=[[0,0.5],[1,0.5]];portConstraint=eastwest;strokeColor=inherit;fontSize=16;" vertex="1" parent="ulyuIbHdvFyfTZUkgaUN-23">
          <mxGeometry y="60" width="120" height="30" as="geometry" />
        </mxCell>
        <mxCell id="ulyuIbHdvFyfTZUkgaUN-28" value="2" style="shape=partialRectangle;html=1;whiteSpace=wrap;connectable=0;fillColor=none;top=0;left=0;bottom=0;right=0;overflow=hidden;strokeColor=inherit;fontSize=16;" vertex="1" parent="ulyuIbHdvFyfTZUkgaUN-27">
          <mxGeometry width="27" height="30" as="geometry">
            <mxRectangle width="27" height="30" as="alternateBounds" />
          </mxGeometry>
        </mxCell>
        <mxCell id="ulyuIbHdvFyfTZUkgaUN-29" value="X2, Y2" style="shape=partialRectangle;html=1;whiteSpace=wrap;connectable=0;fillColor=none;top=0;left=0;bottom=0;right=0;align=left;spacingLeft=6;overflow=hidden;strokeColor=inherit;fontSize=16;" vertex="1" parent="ulyuIbHdvFyfTZUkgaUN-27">
          <mxGeometry x="27" width="93" height="30" as="geometry">
            <mxRectangle width="93" height="30" as="alternateBounds" />
          </mxGeometry>
        </mxCell>
        <mxCell id="ulyuIbHdvFyfTZUkgaUN-30" value="" style="shape=tableRow;horizontal=0;startSize=0;swimlaneHead=0;swimlaneBody=0;top=0;left=0;bottom=0;right=0;collapsible=0;dropTarget=0;fillColor=none;points=[[0,0.5],[1,0.5]];portConstraint=eastwest;strokeColor=inherit;fontSize=16;" vertex="1" parent="ulyuIbHdvFyfTZUkgaUN-23">
          <mxGeometry y="90" width="120" height="30" as="geometry" />
        </mxCell>
        <mxCell id="ulyuIbHdvFyfTZUkgaUN-31" value="3" style="shape=partialRectangle;html=1;whiteSpace=wrap;connectable=0;fillColor=none;top=0;left=0;bottom=0;right=0;overflow=hidden;strokeColor=inherit;fontSize=16;" vertex="1" parent="ulyuIbHdvFyfTZUkgaUN-30">
          <mxGeometry width="27" height="30" as="geometry">
            <mxRectangle width="27" height="30" as="alternateBounds" />
          </mxGeometry>
        </mxCell>
        <mxCell id="ulyuIbHdvFyfTZUkgaUN-32" value="X3, Y3" style="shape=partialRectangle;html=1;whiteSpace=wrap;connectable=0;fillColor=none;top=0;left=0;bottom=0;right=0;align=left;spacingLeft=6;overflow=hidden;strokeColor=inherit;fontSize=16;" vertex="1" parent="ulyuIbHdvFyfTZUkgaUN-30">
          <mxGeometry x="27" width="93" height="30" as="geometry">
            <mxRectangle width="93" height="30" as="alternateBounds" />
          </mxGeometry>
        </mxCell>
        <mxCell id="ulyuIbHdvFyfTZUkgaUN-42" value="" style="sketch=0;points=[[0,0,0],[0.25,0,0],[0.5,0,0],[0.75,0,0],[1,0,0],[0,1,0],[0.25,1,0],[0.5,1,0],[0.75,1,0],[1,1,0],[0,0.25,0],[0,0.5,0],[0,0.75,0],[1,0.25,0],[1,0.5,0],[1,0.75,0]];outlineConnect=0;fontColor=#232F3E;fillColor=#7AA116;strokeColor=#ffffff;dashed=0;verticalLabelPosition=bottom;verticalAlign=top;align=center;html=1;fontSize=12;fontStyle=0;aspect=fixed;shape=mxgraph.aws4.resourceIcon;resIcon=mxgraph.aws4.s3;" vertex="1" parent="ulyuIbHdvFyfTZUkgaUN-39">
          <mxGeometry width="30" height="30" as="geometry" />
        </mxCell>
        <mxCell id="ulyuIbHdvFyfTZUkgaUN-72" value="" style="rounded=1;whiteSpace=wrap;html=1;fillColor=none;dashed=1;dashPattern=8 8;arcSize=8;strokeWidth=1.5;" vertex="1" parent="1">
          <mxGeometry x="1010" y="170" width="320" height="440" as="geometry" />
        </mxCell>
        <mxCell id="ulyuIbHdvFyfTZUkgaUN-17" style="edgeStyle=orthogonalEdgeStyle;rounded=0;orthogonalLoop=1;jettySize=auto;html=1;exitX=1;exitY=0.5;exitDx=0;exitDy=0;exitPerimeter=0;entryX=0;entryY=0.5;entryDx=0;entryDy=0;strokeWidth=2;" edge="1" parent="1" source="ulyuIbHdvFyfTZUkgaUN-2" target="ulyuIbHdvFyfTZUkgaUN-80">
          <mxGeometry relative="1" as="geometry">
            <mxPoint x="1450" y="239.0769230769231" as="targetPoint" />
          </mxGeometry>
        </mxCell>
        <mxCell id="ulyuIbHdvFyfTZUkgaUN-3" value="Rekognition" style="sketch=0;points=[[0,0,0],[0.25,0,0],[0.5,0,0],[0.75,0,0],[1,0,0],[0,1,0],[0.25,1,0],[0.5,1,0],[0.75,1,0],[1,1,0],[0,0.25,0],[0,0.5,0],[0,0.75,0],[1,0.25,0],[1,0.5,0],[1,0.75,0]];outlineConnect=0;fontColor=#232F3E;fillColor=#01A88D;strokeColor=#ffffff;dashed=0;verticalLabelPosition=bottom;verticalAlign=top;align=center;html=1;fontSize=15;fontStyle=0;aspect=fixed;shape=mxgraph.aws4.resourceIcon;resIcon=mxgraph.aws4.rekognition_2;" vertex="1" parent="1">
          <mxGeometry x="1053" y="330" width="78" height="78" as="geometry" />
        </mxCell>
        <mxCell id="ulyuIbHdvFyfTZUkgaUN-5" value="S3" style="sketch=0;points=[[0,0,0],[0.25,0,0],[0.5,0,0],[0.75,0,0],[1,0,0],[0,1,0],[0.25,1,0],[0.5,1,0],[0.75,1,0],[1,1,0],[0,0.25,0],[0,0.5,0],[0,0.75,0],[1,0.25,0],[1,0.5,0],[1,0.75,0]];outlineConnect=0;fontColor=#232F3E;fillColor=#7AA116;strokeColor=#ffffff;dashed=0;verticalLabelPosition=bottom;verticalAlign=top;align=center;html=1;fontSize=15;fontStyle=0;aspect=fixed;shape=mxgraph.aws4.resourceIcon;resIcon=mxgraph.aws4.s3;" vertex="1" parent="1">
          <mxGeometry x="1053" y="200" width="78" height="78" as="geometry" />
        </mxCell>
        <mxCell id="ulyuIbHdvFyfTZUkgaUN-47" style="edgeStyle=orthogonalEdgeStyle;rounded=0;orthogonalLoop=1;jettySize=auto;html=1;exitX=1;exitY=0.5;exitDx=0;exitDy=0;strokeWidth=2;" edge="1" parent="1" source="ulyuIbHdvFyfTZUkgaUN-9" target="ulyuIbHdvFyfTZUkgaUN-5">
          <mxGeometry relative="1" as="geometry" />
        </mxCell>
        <mxCell id="ulyuIbHdvFyfTZUkgaUN-9" value="&lt;b&gt;Drawing&lt;/b&gt;" style="shape=image;html=1;verticalAlign=top;verticalLabelPosition=bottom;labelBackgroundColor=#ffffff;imageAspect=0;aspect=fixed;image=https://cdn1.iconfinder.com/data/icons/bootstrap-vol-3/16/filetype-pdf-128.png" vertex="1" parent="1">
          <mxGeometry x="892" y="200" width="78" height="78" as="geometry" />
        </mxCell>
        <mxCell id="ulyuIbHdvFyfTZUkgaUN-33" style="edgeStyle=orthogonalEdgeStyle;rounded=0;orthogonalLoop=1;jettySize=auto;html=1;exitX=1;exitY=0.5;exitDx=0;exitDy=0;exitPerimeter=0;entryX=0;entryY=0.5;entryDx=0;entryDy=0;strokeWidth=2;" edge="1" parent="1" source="ulyuIbHdvFyfTZUkgaUN-15" target="ulyuIbHdvFyfTZUkgaUN-81">
          <mxGeometry relative="1" as="geometry">
            <mxPoint x="1450" y="497" as="targetPoint" />
          </mxGeometry>
        </mxCell>
        <mxCell id="ulyuIbHdvFyfTZUkgaUN-19" style="edgeStyle=orthogonalEdgeStyle;rounded=0;orthogonalLoop=1;jettySize=auto;html=1;exitX=0.5;exitY=1;exitDx=0;exitDy=0;exitPerimeter=0;entryX=0.5;entryY=0;entryDx=0;entryDy=0;entryPerimeter=0;" edge="1" parent="1" source="ulyuIbHdvFyfTZUkgaUN-2" target="ulyuIbHdvFyfTZUkgaUN-14">
          <mxGeometry relative="1" as="geometry" />
        </mxCell>
        <mxCell id="ulyuIbHdvFyfTZUkgaUN-16" style="edgeStyle=orthogonalEdgeStyle;rounded=0;orthogonalLoop=1;jettySize=auto;html=1;exitX=1;exitY=0.5;exitDx=0;exitDy=0;exitPerimeter=0;entryX=0;entryY=0.5;entryDx=0;entryDy=0;entryPerimeter=0;strokeWidth=2;" edge="1" parent="1" source="ulyuIbHdvFyfTZUkgaUN-5" target="ulyuIbHdvFyfTZUkgaUN-2">
          <mxGeometry relative="1" as="geometry" />
        </mxCell>
        <mxCell id="ulyuIbHdvFyfTZUkgaUN-20" style="edgeStyle=orthogonalEdgeStyle;rounded=0;orthogonalLoop=1;jettySize=auto;html=1;exitX=0;exitY=0.5;exitDx=0;exitDy=0;exitPerimeter=0;entryX=1;entryY=0.5;entryDx=0;entryDy=0;entryPerimeter=0;strokeWidth=2;" edge="1" parent="1" source="ulyuIbHdvFyfTZUkgaUN-14" target="ulyuIbHdvFyfTZUkgaUN-3">
          <mxGeometry relative="1" as="geometry" />
        </mxCell>
        <mxCell id="ulyuIbHdvFyfTZUkgaUN-21" style="edgeStyle=orthogonalEdgeStyle;rounded=0;orthogonalLoop=1;jettySize=auto;html=1;exitX=0.5;exitY=1;exitDx=0;exitDy=0;exitPerimeter=0;entryX=0.5;entryY=0;entryDx=0;entryDy=0;entryPerimeter=0;" edge="1" parent="1" source="ulyuIbHdvFyfTZUkgaUN-14" target="ulyuIbHdvFyfTZUkgaUN-15">
          <mxGeometry relative="1" as="geometry" />
        </mxCell>
        <mxCell id="ulyuIbHdvFyfTZUkgaUN-37" style="edgeStyle=orthogonalEdgeStyle;rounded=0;orthogonalLoop=1;jettySize=auto;html=1;exitX=1;exitY=0.5;exitDx=0;exitDy=0;exitPerimeter=0;strokeWidth=2;" edge="1" parent="1" source="ulyuIbHdvFyfTZUkgaUN-14" target="ulyuIbHdvFyfTZUkgaUN-36">
          <mxGeometry relative="1" as="geometry">
            <mxPoint x="1220" y="369" as="sourcePoint" />
            <mxPoint x="1148" y="369" as="targetPoint" />
          </mxGeometry>
        </mxCell>
        <mxCell id="ulyuIbHdvFyfTZUkgaUN-45" value="Claude 3.5 Sonnet" style="sketch=0;points=[[0,0,0],[0.25,0,0],[0.5,0,0],[0.75,0,0],[1,0,0],[0,1,0],[0.25,1,0],[0.5,1,0],[0.75,1,0],[1,1,0],[0,0.25,0],[0,0.5,0],[0,0.75,0],[1,0.25,0],[1,0.5,0],[1,0.75,0]];outlineConnect=0;fontColor=#232F3E;fillColor=#01A88D;strokeColor=#ffffff;dashed=0;verticalLabelPosition=bottom;verticalAlign=top;align=center;html=1;fontSize=15;fontStyle=0;aspect=fixed;shape=mxgraph.aws4.resourceIcon;resIcon=mxgraph.aws4.bedrock;" vertex="1" parent="1">
          <mxGeometry x="1053" y="457" width="78" height="78" as="geometry" />
        </mxCell>
        <mxCell id="ulyuIbHdvFyfTZUkgaUN-46" style="edgeStyle=orthogonalEdgeStyle;rounded=0;orthogonalLoop=1;jettySize=auto;html=1;exitX=0;exitY=0.5;exitDx=0;exitDy=0;exitPerimeter=0;entryX=1;entryY=0.5;entryDx=0;entryDy=0;entryPerimeter=0;strokeWidth=2;" edge="1" parent="1" source="ulyuIbHdvFyfTZUkgaUN-15" target="ulyuIbHdvFyfTZUkgaUN-45">
          <mxGeometry relative="1" as="geometry">
            <mxPoint x="1220" y="386" as="sourcePoint" />
            <mxPoint x="1170" y="447" as="targetPoint" />
          </mxGeometry>
        </mxCell>
        <mxCell id="ulyuIbHdvFyfTZUkgaUN-2" value="Tile Splliter" style="sketch=0;points=[[0,0,0],[0.25,0,0],[0.5,0,0],[0.75,0,0],[1,0,0],[0,1,0],[0.25,1,0],[0.5,1,0],[0.75,1,0],[1,1,0],[0,0.25,0],[0,0.5,0],[0,0.75,0],[1,0.25,0],[1,0.5,0],[1,0.75,0]];outlineConnect=0;fontColor=#232F3E;fillColor=#ED7100;strokeColor=#ffffff;dashed=0;verticalLabelPosition=bottom;verticalAlign=top;align=center;html=1;fontSize=15;fontStyle=0;aspect=fixed;shape=mxgraph.aws4.resourceIcon;resIcon=mxgraph.aws4.lambda;labelBackgroundColor=#FFFFFF;" vertex="1" parent="1">
          <mxGeometry x="1210" y="199" width="78" height="78" as="geometry" />
        </mxCell>
        <mxCell id="ulyuIbHdvFyfTZUkgaUN-14" value="Object Location" style="sketch=0;points=[[0,0,0],[0.25,0,0],[0.5,0,0],[0.75,0,0],[1,0,0],[0,1,0],[0.25,1,0],[0.5,1,0],[0.75,1,0],[1,1,0],[0,0.25,0],[0,0.5,0],[0,0.75,0],[1,0.25,0],[1,0.5,0],[1,0.75,0]];outlineConnect=0;fontColor=#232F3E;fillColor=#ED7100;strokeColor=#ffffff;dashed=0;verticalLabelPosition=bottom;verticalAlign=top;align=center;html=1;fontSize=15;fontStyle=0;aspect=fixed;shape=mxgraph.aws4.resourceIcon;resIcon=mxgraph.aws4.lambda;labelBackgroundColor=default;" vertex="1" parent="1">
          <mxGeometry x="1210" y="330" width="78" height="78" as="geometry" />
        </mxCell>
        <mxCell id="ulyuIbHdvFyfTZUkgaUN-52" style="edgeStyle=orthogonalEdgeStyle;rounded=0;orthogonalLoop=1;jettySize=auto;html=1;exitX=1;exitY=0.5;exitDx=0;exitDy=0;exitPerimeter=0;entryX=0;entryY=0.5;entryDx=0;entryDy=0;strokeWidth=2;" edge="1" parent="1" source="ulyuIbHdvFyfTZUkgaUN-15" target="ulyuIbHdvFyfTZUkgaUN-27">
          <mxGeometry relative="1" as="geometry" />
        </mxCell>
        <mxCell id="ulyuIbHdvFyfTZUkgaUN-15" value="Grouping &amp;amp; Markup" style="sketch=0;points=[[0,0,0],[0.25,0,0],[0.5,0,0],[0.75,0,0],[1,0,0],[0,1,0],[0.25,1,0],[0.5,1,0],[0.75,1,0],[1,1,0],[0,0.25,0],[0,0.5,0],[0,0.75,0],[1,0.25,0],[1,0.5,0],[1,0.75,0]];outlineConnect=0;fontColor=#232F3E;fillColor=#ED7100;strokeColor=#ffffff;dashed=0;verticalLabelPosition=bottom;verticalAlign=top;align=center;html=1;fontSize=15;fontStyle=0;aspect=fixed;shape=mxgraph.aws4.resourceIcon;resIcon=mxgraph.aws4.lambda;" vertex="1" parent="1">
          <mxGeometry x="1210" y="457" width="78" height="78" as="geometry" />
        </mxCell>
        <mxCell id="ulyuIbHdvFyfTZUkgaUN-78" value="Upload New Drawing" style="edgeStyle=orthogonalEdgeStyle;rounded=0;orthogonalLoop=1;jettySize=auto;html=1;exitX=0.5;exitY=0;exitDx=0;exitDy=0;entryX=1;entryY=0.5;entryDx=0;entryDy=0;strokeWidth=2;fontSize=15;" edge="1" parent="1" source="ulyuIbHdvFyfTZUkgaUN-53" target="ulyuIbHdvFyfTZUkgaUN-82">
          <mxGeometry x="0.0025" y="-17" relative="1" as="geometry">
            <mxPoint x="980" y="140.0000000000001" as="targetPoint" />
            <mxPoint as="offset" />
          </mxGeometry>
        </mxCell>
        <mxCell id="ulyuIbHdvFyfTZUkgaUN-53" value="streamlit" style="swimlane;whiteSpace=wrap;html=1;fillColor=#d5e8d4;strokeColor=#82b366;fontSize=18;startSize=30;strokeWidth=3;" vertex="1" parent="1">
          <mxGeometry x="1800" y="214" width="220" height="459" as="geometry" />
        </mxCell>
        <mxCell id="ulyuIbHdvFyfTZUkgaUN-4" value="" style="sketch=0;points=[[0,0,0],[0.25,0,0],[0.5,0,0],[0.75,0,0],[1,0,0],[0,1,0],[0.25,1,0],[0.5,1,0],[0.75,1,0],[1,1,0],[0,0.25,0],[0,0.5,0],[0,0.75,0],[1,0.25,0],[1,0.5,0],[1,0.75,0]];outlineConnect=0;fontColor=#232F3E;fillColor=#01A88D;strokeColor=#ffffff;dashed=0;verticalLabelPosition=bottom;verticalAlign=top;align=center;html=1;fontSize=12;fontStyle=0;aspect=fixed;shape=mxgraph.aws4.resourceIcon;resIcon=mxgraph.aws4.sagemaker;" vertex="1" parent="ulyuIbHdvFyfTZUkgaUN-53">
          <mxGeometry y="1" width="29" height="29" as="geometry" />
        </mxCell>
        <mxCell id="ulyuIbHdvFyfTZUkgaUN-65" value="Pre/Post-Process Drawings" style="rounded=1;whiteSpace=wrap;html=1;fontSize=18;" vertex="1" parent="ulyuIbHdvFyfTZUkgaUN-53">
          <mxGeometry x="20" y="212" width="180" height="60" as="geometry" />
        </mxCell>
        <mxCell id="ulyuIbHdvFyfTZUkgaUN-66" value="New File Upload" style="rounded=1;whiteSpace=wrap;html=1;fontSize=18;" vertex="1" parent="ulyuIbHdvFyfTZUkgaUN-53">
          <mxGeometry x="20" y="292" width="180" height="60" as="geometry" />
        </mxCell>
        <mxCell id="ulyuIbHdvFyfTZUkgaUN-67" value="Table Display" style="rounded=1;whiteSpace=wrap;html=1;fontSize=18;" vertex="1" parent="ulyuIbHdvFyfTZUkgaUN-53">
          <mxGeometry x="20" y="132" width="180" height="60" as="geometry" />
        </mxCell>
        <mxCell id="ulyuIbHdvFyfTZUkgaUN-56" value="Project Engineer/&lt;div style=&quot;font-size: 15px;&quot;&gt;Maintenance Engineer&lt;/div&gt;" style="sketch=0;outlineConnect=0;fontColor=#232F3E;gradientColor=none;fillColor=#232F3D;strokeColor=none;dashed=0;verticalLabelPosition=bottom;verticalAlign=top;align=center;html=1;fontSize=15;fontStyle=0;aspect=fixed;pointerEvents=1;shape=mxgraph.aws4.user;strokeWidth=7;" vertex="1" parent="1">
          <mxGeometry x="2100" y="408" width="70" height="70" as="geometry" />
        </mxCell>
        <mxCell id="ulyuIbHdvFyfTZUkgaUN-60" style="edgeStyle=orthogonalEdgeStyle;rounded=0;orthogonalLoop=1;jettySize=auto;html=1;exitX=0;exitY=0.5;exitDx=0;exitDy=0;exitPerimeter=0;entryX=1;entryY=0.5;entryDx=0;entryDy=0;strokeWidth=2;" edge="1" parent="1" source="ulyuIbHdvFyfTZUkgaUN-58" target="ulyuIbHdvFyfTZUkgaUN-39">
          <mxGeometry relative="1" as="geometry" />
        </mxCell>
        <mxCell id="ulyuIbHdvFyfTZUkgaUN-58" value="Claude 3.5 Sonnet" style="sketch=0;points=[[0,0,0],[0.25,0,0],[0.5,0,0],[0.75,0,0],[1,0,0],[0,1,0],[0.25,1,0],[0.5,1,0],[0.75,1,0],[1,1,0],[0,0.25,0],[0,0.5,0],[0,0.75,0],[1,0.25,0],[1,0.5,0],[1,0.75,0]];outlineConnect=0;fontColor=#232F3E;fillColor=#01A88D;strokeColor=#ffffff;dashed=0;verticalLabelPosition=bottom;verticalAlign=top;align=center;html=1;fontSize=15;fontStyle=0;aspect=fixed;shape=mxgraph.aws4.resourceIcon;resIcon=mxgraph.aws4.bedrock;" vertex="1" parent="1">
          <mxGeometry x="1660" y="404.5" width="78" height="78" as="geometry" />
        </mxCell>
        <mxCell id="ulyuIbHdvFyfTZUkgaUN-62" style="edgeStyle=orthogonalEdgeStyle;rounded=0;orthogonalLoop=1;jettySize=auto;html=1;exitX=0;exitY=0.5;exitDx=0;exitDy=0;entryX=1;entryY=0.5;entryDx=0;entryDy=0;entryPerimeter=0;strokeWidth=2;" edge="1" parent="1" source="ulyuIbHdvFyfTZUkgaUN-53" target="ulyuIbHdvFyfTZUkgaUN-58">
          <mxGeometry relative="1" as="geometry">
            <mxPoint x="1690" y="448" as="sourcePoint" />
            <mxPoint x="1605" y="448" as="targetPoint" />
          </mxGeometry>
        </mxCell>
        <mxCell id="ulyuIbHdvFyfTZUkgaUN-6" value="Event Driven/Scalable" style="sketch=0;points=[[0,0,0],[0.25,0,0],[0.5,0,0],[0.75,0,0],[1,0,0],[0,1,0],[0.25,1,0],[0.5,1,0],[0.75,1,0],[1,1,0],[0,0.25,0],[0,0.5,0],[0,0.75,0],[1,0.25,0],[1,0.5,0],[1,0.75,0]];outlineConnect=0;fontColor=#232F3E;fillColor=#E7157B;strokeColor=#ffffff;dashed=0;verticalLabelPosition=bottom;verticalAlign=top;align=center;html=1;fontSize=15;fontStyle=0;aspect=fixed;shape=mxgraph.aws4.resourceIcon;resIcon=mxgraph.aws4.eventbridge;" vertex="1" parent="1">
          <mxGeometry x="980" y="580" width="60" height="60" as="geometry" />
        </mxCell>
        <mxCell id="ulyuIbHdvFyfTZUkgaUN-73" style="edgeStyle=orthogonalEdgeStyle;rounded=0;orthogonalLoop=1;jettySize=auto;html=1;entryX=1;entryY=0.5;entryDx=0;entryDy=0;strokeWidth=2;" edge="1" parent="1" source="ulyuIbHdvFyfTZUkgaUN-56" target="ulyuIbHdvFyfTZUkgaUN-53">
          <mxGeometry relative="1" as="geometry">
            <mxPoint x="1850" y="448" as="sourcePoint" />
            <mxPoint x="2060" y="430" as="targetPoint" />
          </mxGeometry>
        </mxCell>
        <mxCell id="ulyuIbHdvFyfTZUkgaUN-80" value="Split Image&lt;div style=&quot;font-size: 15px;&quot;&gt;&lt;br style=&quot;font-size: 15px;&quot;&gt;&lt;/div&gt;" style="shape=image;html=1;verticalAlign=top;verticalLabelPosition=bottom;labelBackgroundColor=#ffffff;imageAspect=0;aspect=fixed;image=https://cdn1.iconfinder.com/data/icons/bootstrap-vol-3/16/filetype-jpg-128.png;fontSize=15;" vertex="1" parent="1">
          <mxGeometry x="1462.5" y="199" width="80" height="80" as="geometry" />
        </mxCell>
        <mxCell id="ulyuIbHdvFyfTZUkgaUN-81" value="Mark-Up Drawing" style="shape=image;html=1;verticalAlign=top;verticalLabelPosition=bottom;labelBackgroundColor=#ffffff;imageAspect=0;aspect=fixed;image=https://cdn1.iconfinder.com/data/icons/bootstrap-vol-3/16/filetype-jpg-128.png;fontSize=15;" vertex="1" parent="1">
          <mxGeometry x="1462.5" y="456" width="80" height="80" as="geometry" />
        </mxCell>
        <mxCell id="ulyuIbHdvFyfTZUkgaUN-82" value="&lt;br&gt;&lt;div&gt;&lt;br&gt;&lt;/div&gt;" style="shape=image;html=1;verticalAlign=top;verticalLabelPosition=bottom;labelBackgroundColor=#ffffff;imageAspect=0;aspect=fixed;image=https://cdn1.iconfinder.com/data/icons/bootstrap-vol-3/16/filetype-jpg-128.png" vertex="1" parent="1">
          <mxGeometry x="893" y="93" width="77" height="77" as="geometry" />
        </mxCell>
        <mxCell id="ulyuIbHdvFyfTZUkgaUN-87" value="Project Catalogue Drop Down List" style="rounded=1;whiteSpace=wrap;html=1;fontSize=18;" vertex="1" parent="1">
          <mxGeometry x="1820" y="267" width="180" height="60" as="geometry" />
        </mxCell>
        <mxCell id="ulyuIbHdvFyfTZUkgaUN-64" value="Q&amp;amp;A / Sample Prompts" style="rounded=1;whiteSpace=wrap;html=1;fontSize=18;" vertex="1" parent="1">
          <mxGeometry x="1820" y="587" width="180" height="60" as="geometry" />
        </mxCell>
      </root>
    </mxGraphModel>
  </diagram>
</mxfile>
